# xmcd
#
# Track frame offsets: 
#        150
#        14542
#        26244
#        44103
#        55419
#        69986
#        82846
#        98534
#        110865
#        124149
#        138780
#        153624
#        169210
#        179199
#        189217
#        206770
#        222179
#        235374
#        256668
#        270862
#
# Disc length: 3787 seconds
#
# Revision: 0
# Processed by: cddbd v1.5.1PL0 Copyright (c) Steve Scherf et al.
# Submitted via: ExactAudioCopy v0.95b2
#
DISCID=210ec914
DTITLE=Izabela i Ryszard Szymañscy - Gala Piosenki Biesiadnej 8
DYEAR=1900
DGENRE=Country
TTITLE0=Cyt, cyt
TTITLE1=Na dworze jest mrok
TTITLE2=Zabra³as serce moje
TTITLE3=Rio de Janeiro
TTITLE4=Hiszpañska noc
TTITLE5=Ja idê spaæ sama
TTITLE6=W moim ogródeczku
TTITLE7=Co komu pisane
TTITLE8=Kawalerowie nie chc¹ ¿eniæ siê
TTITLE9=Ballada o ³ysych
TTITLE10=U cioci na imieninach
TTITLE11=Margerita
TTITLE12=Morowa czarna
TTITLE13=Santa Maria
TTITLE14=Zimowy wieczór
TTITLE15=Co za bal
TTITLE16=Pogna³a wo³ki
TTITLE17=Szczêsliwi razem
TTITLE18=Paloma
TTITLE19=Mama ciao
EXTD=
EXTT0=
EXTT1=
EXTT2=
EXTT3=
EXTT4=
EXTT5=
EXTT6=
EXTT7=
EXTT8=
EXTT9=
EXTT10=
EXTT11=
EXTT12=
EXTT13=
EXTT14=
EXTT15=
EXTT16=
EXTT17=
EXTT18=
EXTT19=
PLAYORDER=
